<?xml version="1.0" encoding="UTF-8"?>
<svg version="1.1" xmlns="http://www.w3.org/2000/svg" width="500" height="500">
<path d="M0 0 C165 0 330 0 500 0 C500 165 500 330 500 500 C335 500 170 500 0 500 C0 335 0 170 0 0 Z " fill="#FEFEFE" transform="translate(0,0)"/>
<path d="M0 0 C2.14735345 0.00097408 4.29114861 -0.04071647 6.43798828 -0.08496094 C7.8116788 -0.09016765 9.18538165 -0.09285614 10.55908203 -0.09277344 C11.79980469 -0.09986328 13.04052734 -0.10695312 14.31884766 -0.11425781 C18.58155286 0.67235738 20.08200592 2.06006701 22.65283203 5.50097656 C23.00146484 7.76147461 23.00146484 7.76147461 22.60595703 10.07519531 C22.4000293 11.3791626 22.4000293 11.3791626 22.18994141 12.70947266 C22.01269531 13.63066895 21.83544922 14.55186523 21.65283203 15.50097656 C21.49105469 16.45182129 21.32927734 17.40266602 21.16259766 18.38232422 C20.63013845 21.3727062 20.02562736 24.34069263 19.40283203 27.31347656 C19.21076172 28.32345703 19.01869141 29.3334375 18.82080078 30.37402344 C17.61882812 36.10040263 16.62062725 39.91061547 11.65283203 43.50097656 C5.99540403 45.44581538 -0.45129575 44.68551679 -6.34716797 44.68847656 C-8.27302734 44.7068457 -8.27302734 44.7068457 -10.23779297 44.72558594 C-11.47013672 44.72751953 -12.70248047 44.72945313 -13.97216797 44.73144531 C-15.09880859 44.7355542 -16.22544922 44.73966309 -17.38623047 44.74389648 C-20.29233776 44.50547492 -21.94034618 44.10728999 -24.34716797 42.50097656 C-27.68025401 35.83480448 -23.80327718 23.99798024 -22.40966797 16.93847656 C-22.23991455 16.06980957 -22.07016113 15.20114258 -21.89526367 14.30615234 C-21.72599365 13.48228027 -21.55672363 12.6584082 -21.38232422 11.80957031 C-21.23158447 11.07536865 -21.08084473 10.34116699 -20.92553711 9.5847168 C-19.94709949 6.05961545 -19.09130596 4.08789292 -16.16552734 1.78027344 C-11.06093738 -0.53677883 -5.51142988 -0.01766888 0 0 Z " fill="#0768A6" transform="translate(384.34716796875,222.4990234375)"/>
<path d="M0 0 C2.08297121 0.00315859 4.16451878 -0.02031136 6.24731445 -0.0456543 C7.56666992 -0.04629883 8.88602539 -0.04694336 10.24536133 -0.04760742 C11.4505542 -0.05058838 12.65574707 -0.05356934 13.89746094 -0.05664062 C17.49882012 0.35490473 19.39701534 0.96455347 22.15551758 3.31567383 C23.93624692 10.51166647 21.53379891 19.03775507 19.96801758 26.12817383 C19.77143555 27.12526367 19.57485352 28.12235352 19.37231445 29.1496582 C18.07244635 35.16104824 16.73562362 39.11087238 12.15551758 43.31567383 C6.57760214 45.32288994 0.05326768 44.54215645 -5.78198242 44.56567383 C-7.05750977 44.58629883 -8.33303711 44.60692383 -9.6472168 44.62817383 C-11.49089844 44.6359082 -11.49089844 44.6359082 -13.37182617 44.64379883 C-14.49322998 44.65314453 -15.61463379 44.66249023 -16.77001953 44.67211914 C-20.31390546 44.26125013 -22.1349873 43.64414141 -24.84448242 41.31567383 C-26.80457347 34.95352885 -24.91323111 28.73726928 -23.65698242 22.37817383 C-23.44750977 21.22381836 -23.23803711 20.06946289 -23.0222168 18.88012695 C-20.2684143 4.63716628 -20.2684143 4.63716628 -15.13842773 1.15893555 C-10.35533239 -0.59934578 -5.03756688 -0.01601864 0 0 Z " fill="#0568A7" transform="translate(288.844482421875,222.684326171875)"/>
<path d="M0 0 C0.79339783 0.0028299 1.58679565 0.00565979 2.40423584 0.00857544 C4.93110417 0.01974471 7.45761432 0.04484306 9.984375 0.0703125 C11.7005157 0.08034652 13.41666198 0.08947163 15.1328125 0.09765625 C19.33347074 0.11967336 23.5338622 0.15418063 27.734375 0.1953125 C27.404375 3.1653125 27.074375 6.1353125 26.734375 9.1953125 C17.494375 9.5253125 8.254375 9.8553125 -1.265625 10.1953125 C-3.18540361 14.03486973 -4.09442587 17.47714051 -4.890625 21.6328125 C-5.0246875 22.28830078 -5.15875 22.94378906 -5.296875 23.61914062 C-5.99947119 27.19306104 -6.41999632 30.55355271 -6.265625 34.1953125 C-4.32881339 34.27638833 -2.3910316 34.33453725 -0.453125 34.3828125 C0.62582031 34.41761719 1.70476562 34.45242188 2.81640625 34.48828125 C5.70447456 34.42922653 5.70447456 34.42922653 7.62109375 32.93359375 C9.09392311 30.97795 9.09392311 30.97795 8.734375 27.1953125 C4.774375 26.8653125 0.814375 26.5353125 -3.265625 26.1953125 C-2.935625 23.5553125 -2.605625 20.9153125 -2.265625 18.1953125 C6.314375 18.1953125 14.894375 18.1953125 23.734375 18.1953125 C23.734375 35.60966435 23.734375 35.60966435 18.296875 41.3828125 C12.33558251 45.59933645 4.81631893 44.45476884 -2.203125 44.5078125 C-3.47865234 44.53681641 -4.75417969 44.56582031 -6.06835938 44.59570312 C-7.29748047 44.60408203 -8.52660156 44.61246094 -9.79296875 44.62109375 C-10.91437256 44.63567627 -12.03577637 44.65025879 -13.19116211 44.6652832 C-16.94968645 44.09074502 -18.60808832 42.86875525 -21.265625 40.1953125 C-21.95736044 35.86702501 -20.9888337 31.49628904 -20.265625 27.1953125 C-20.13446289 26.41446289 -20.00330078 25.63361328 -19.86816406 24.82910156 C-19.42460457 22.29913308 -18.94721541 19.77837911 -18.453125 17.2578125 C-18.30045166 16.45335693 -18.14777832 15.64890137 -17.99047852 14.82006836 C-16.8527207 9.43580509 -15.37427585 4.40383111 -10.65014648 1.04760742 C-7.13671377 -0.20819207 -3.68196915 -0.04956553 0 0 Z " fill="#0568A6" transform="translate(189.265625,222.8046875)"/>
<path d="M0 0 C0.76358826 -0.00807175 1.52717651 -0.01614349 2.31390381 -0.02445984 C3.93466918 -0.03831792 5.55546394 -0.04903234 7.17626953 -0.05688477 C9.64803083 -0.07405313 12.1184391 -0.11791543 14.58984375 -0.16210938 C16.16405265 -0.17224003 17.73827295 -0.18075497 19.3125 -0.1875 C20.04913879 -0.20500809 20.78577759 -0.22251617 21.54473877 -0.24055481 C25.17244703 -0.22533061 27.27491432 0.14880072 30.39868164 2.05078125 C32.421875 4.23828125 32.421875 4.23828125 32.90234375 7.6640625 C32.50513782 13.6806871 31.07749106 19.56401555 29.734375 25.42578125 C29.49009766 26.58787109 29.24582031 27.74996094 28.99414062 28.94726562 C26.58021723 39.57463976 26.58021723 39.57463976 21.421875 43.23828125 C18.65622118 44.16016586 17.03903798 44.35613347 14.19140625 44.3359375 C13.38896484 44.33271484 12.58652344 44.32949219 11.75976562 44.32617188 C10.92638672 44.31779297 10.09300781 44.30941406 9.234375 44.30078125 C7.9669043 44.29401367 7.9669043 44.29401367 6.67382812 44.28710938 C4.58981345 44.27533528 2.50583523 44.25740015 0.421875 44.23828125 C-0.42266856 40.860107 -0.68657419 38.56362882 0.421875 35.23828125 C1.19273438 35.17769531 1.96359375 35.11710937 2.7578125 35.0546875 C3.76070312 34.97089844 4.76359375 34.88710938 5.796875 34.80078125 C6.79460937 34.71957031 7.79234375 34.63835937 8.8203125 34.5546875 C11.40115113 34.38862499 11.40115113 34.38862499 13.421875 33.23828125 C14.07682516 31.37809692 14.07682516 31.37809692 14.4921875 29.125 C14.75322266 27.87106445 14.75322266 27.87106445 15.01953125 26.59179688 C15.28056641 25.27211914 15.28056641 25.27211914 15.546875 23.92578125 C15.72863281 23.05759766 15.91039062 22.18941406 16.09765625 21.29492188 C16.8771743 17.47645565 17.421875 14.16261604 17.421875 10.23828125 C12.801875 10.23828125 8.181875 10.23828125 3.421875 10.23828125 C3.21506104 11.2327124 3.00824707 12.22714355 2.79516602 13.25170898 C2.02926882 16.92942953 1.25843695 20.60610099 0.48608398 24.2824707 C0.15204609 25.87593713 -0.18063998 27.46968755 -0.51196289 29.0637207 C-0.98752193 31.35052704 -1.46788074 33.63627903 -1.94921875 35.921875 C-2.09717392 36.63854843 -2.24512909 37.35522186 -2.39756775 38.09361267 C-3.46425329 43.12440954 -3.46425329 43.12440954 -4.578125 44.23828125 C-6.43100002 44.31054627 -8.28646378 44.32209345 -10.140625 44.30078125 C-11.15253906 44.29175781 -12.16445313 44.28273438 -13.20703125 44.2734375 C-14.38072266 44.25603516 -14.38072266 44.25603516 -15.578125 44.23828125 C-16.60370974 41.01541251 -16.52266529 38.69548324 -15.94140625 35.37890625 C-15.77809814 34.4348291 -15.61479004 33.49075195 -15.4465332 32.51806641 C-15.2630835 31.5182373 -15.07963379 30.5184082 -14.890625 29.48828125 C-14.61641724 27.9556665 -14.61641724 27.9556665 -14.33666992 26.39208984 C-9.51535468 0.09438151 -9.51535468 0.09438151 0 0 Z " fill="#0568A6" transform="translate(69.578125,222.76171875)"/>
<path d="M0 0 C2.08297121 0.00315859 4.16451878 -0.02031136 6.24731445 -0.0456543 C7.56666992 -0.04629883 8.88602539 -0.04694336 10.24536133 -0.04760742 C11.4505542 -0.05058838 12.65574707 -0.05356934 13.89746094 -0.05664062 C17.4696268 0.35156866 19.37480611 1.0502204 22.15551758 3.31567383 C23.15325722 10.86206969 21.22550232 18.31438696 19.7019043 25.70214844 C19.27687568 27.77090012 18.86970734 29.84264363 18.46411133 31.9152832 C18.1982312 33.235156 17.93134119 34.55482585 17.66333008 35.87426758 C17.42243652 37.06334717 17.18154297 38.25242676 16.93334961 39.47753906 C16.15551758 42.31567383 16.15551758 42.31567383 14.15551758 44.31567383 C11.55395508 44.51098633 11.55395508 44.51098633 8.53051758 44.44067383 C7.52762695 44.42262695 6.52473633 44.40458008 5.49145508 44.38598633 C4.33516602 44.35118164 4.33516602 44.35118164 3.15551758 44.31567383 C3.03515094 38.53807499 3.32345938 33.03607394 4.15551758 27.31567383 C0.52551758 26.98567383 -3.10448242 26.65567383 -6.84448242 26.31567383 C-6.88689965 23.98272607 -6.8854118 21.64864816 -6.84448242 19.31567383 C-4.6080598 17.07925121 0.44205142 17.79675178 3.46801758 17.59692383 C6.0714851 17.60959584 6.0714851 17.60959584 7.15551758 16.31567383 C7.15551758 14.33567383 7.15551758 12.35567383 7.15551758 10.31567383 C2.86551758 10.31567383 -1.42448242 10.31567383 -5.84448242 10.31567383 C-8.43994543 18.42002557 -10.03016245 26.42094208 -11.39331055 34.80786133 C-11.63404297 36.21938477 -11.63404297 36.21938477 -11.87963867 37.65942383 C-12.01764893 38.50698242 -12.15565918 39.35454102 -12.29785156 40.2277832 C-12.84448242 42.31567383 -12.84448242 42.31567383 -14.84448242 44.31567383 C-17.44604492 44.51098633 -17.44604492 44.51098633 -20.46948242 44.44067383 C-21.47237305 44.42262695 -22.47526367 44.40458008 -23.50854492 44.38598633 C-24.66483398 44.35118164 -24.66483398 44.35118164 -25.84448242 44.31567383 C-27.84758029 38.7806393 -25.6741828 32.74630158 -24.57617188 27.15380859 C-24.16095604 25.02356034 -23.76854954 22.8899595 -23.37768555 20.75512695 C-20.87578542 7.53401442 -20.87578542 7.53401442 -16.84448242 2.31567383 C-11.9158955 -1.00017778 -5.69807293 -0.01811895 0 0 Z " fill="#0969A6" transform="translate(145.844482421875,222.684326171875)"/>
<path d="M0 0 C1.19221916 0.00212242 1.19221916 0.00212242 2.40852356 0.00428772 C4.9455645 0.00988247 7.482517 0.02243397 10.01953125 0.03515625 C11.7402331 0.04017193 13.46093633 0.04473472 15.18164062 0.04882812 C19.39847155 0.05985018 23.61523641 0.07711119 27.83203125 0.09765625 C27.50203125 3.06765625 27.17203125 6.03765625 26.83203125 9.09765625 C25.98906494 9.1227124 25.14609863 9.14776855 24.27758789 9.17358398 C21.15961451 9.2685378 18.04181622 9.36778073 14.92407227 9.4699707 C13.57288978 9.51336848 12.22165072 9.55503995 10.87036133 9.5949707 C8.93166424 9.65255577 6.99316849 9.71679923 5.0546875 9.78125 C3.88687744 9.81790771 2.71906738 9.85456543 1.51586914 9.89233398 C-1.0857667 9.79841813 -1.0857667 9.79841813 -2.16796875 11.09765625 C-2.33463542 13.59765625 -2.33463542 13.59765625 -2.16796875 16.09765625 C-0.56364963 17.70197537 1.1989879 17.28168207 3.41796875 17.34375 C4.34867187 17.37662109 5.279375 17.40949219 6.23828125 17.44335938 C8.20952561 17.50431233 10.18088577 17.56163373 12.15234375 17.61523438 C13.55226563 17.66647461 13.55226563 17.66647461 14.98046875 17.71875 C15.83817871 17.74380615 16.69588867 17.7688623 17.57958984 17.79467773 C19.83203125 18.09765625 19.83203125 18.09765625 22.83203125 20.09765625 C24.00873131 26.84637716 22.92239088 33.9958398 19.83203125 40.09765625 C16.44248798 43.59653963 13.11251655 44.05592471 8.34863281 44.21118164 C6.97329713 44.21102434 5.59795469 44.20543574 4.22265625 44.1953125 C3.49584656 44.19389755 2.76903687 44.1924826 2.02020264 44.19102478 C-0.29256369 44.18544417 -2.60523187 44.17289529 -4.91796875 44.16015625 C-6.48958193 44.15513874 -8.06119664 44.15057627 -9.6328125 44.14648438 C-13.47790218 44.1354811 -17.32291885 44.11822986 -21.16796875 44.09765625 C-22.01251231 40.719482 -22.27641794 38.42300382 -21.16796875 35.09765625 C-20.36053223 35.0726001 -19.5530957 35.04754395 -18.72119141 35.02172852 C-15.07827958 34.90600138 -11.43564149 34.7831699 -7.79296875 34.66015625 C-6.52195312 34.62083984 -5.2509375 34.58152344 -3.94140625 34.54101562 C-2.7296875 34.49912109 -1.51796875 34.45722656 -0.26953125 34.4140625 C1.41148682 34.35907593 1.41148682 34.35907593 3.12646484 34.30297852 C5.79915896 34.27169612 5.79915896 34.27169612 7.83203125 33.09765625 C7.83203125 31.11765625 7.83203125 29.13765625 7.83203125 27.09765625 C7.18129639 27.08307373 6.53056152 27.06849121 5.86010742 27.0534668 C2.91264819 26.97901076 -0.03367517 26.88234359 -2.98046875 26.78515625 C-4.00462891 26.76259766 -5.02878906 26.74003906 -6.08398438 26.71679688 C-7.06689453 26.68134766 -8.04980469 26.64589844 -9.0625 26.609375 C-9.96846924 26.58319092 -10.87443848 26.55700684 -11.80786133 26.5300293 C-14.57822371 26.0224973 -15.4928537 25.32492503 -17.16796875 23.09765625 C-18.34821128 16.68731935 -17.05018653 9.89767475 -14.16796875 4.09765625 C-10.27276736 -0.54868591 -5.64989534 -0.03777432 0 0 Z " fill="#0768A6" transform="translate(332.16796875,222.90234375)"/>
<path d="M0 0 C2.16636295 0.00316364 4.33136394 -0.02032875 6.49755859 -0.0456543 C7.87906729 -0.04792717 9.26057965 -0.04863084 10.64208984 -0.04760742 C11.89441406 -0.05058838 13.14673828 -0.05356934 14.43701172 -0.05664062 C17.9049753 0.34232169 19.35485368 0.72190755 21.67333984 3.31567383 C23.51799427 11.52136351 20.5938628 20.88183324 18.79833984 28.87817383 C18.52892578 30.14725586 18.25951172 31.41633789 17.98193359 32.72387695 C15.94084454 42.04816913 15.94084454 42.04816913 13.67333984 44.31567383 C11.07177734 44.51098633 11.07177734 44.51098633 8.04833984 44.44067383 C7.04544922 44.42262695 6.04255859 44.40458008 5.00927734 44.38598633 C3.85298828 44.35118164 3.85298828 44.35118164 2.67333984 44.31567383 C2.45479025 38.16808531 3.22439129 32.79323401 4.61083984 26.81567383 C5.93509368 20.98521346 7.02540042 15.26307573 7.67333984 9.31567383 C3.05333984 9.64567383 -1.56666016 9.97567383 -6.32666016 10.31567383 C-7.12213574 13.585625 -7.914049 16.85632531 -8.70166016 20.12817383 C-8.93280518 21.08763916 -9.1639502 22.04710449 -9.40209961 23.03564453 C-10.77838848 28.81449103 -12.01581303 34.56950737 -12.86962891 40.45239258 C-13.32666016 42.31567383 -13.32666016 42.31567383 -15.32666016 44.31567383 C-17.92822266 44.51098633 -17.92822266 44.51098633 -20.95166016 44.44067383 C-21.95455078 44.42262695 -22.95744141 44.40458008 -23.99072266 44.38598633 C-25.14701172 44.35118164 -25.14701172 44.35118164 -26.32666016 44.31567383 C-27.28858286 41.24402067 -27.3120393 39.14626092 -26.65478516 36.00708008 C-26.48648193 35.18344971 -26.31817871 34.35981934 -26.14477539 33.51123047 C-25.95729736 32.64232178 -25.76981934 31.77341309 -25.57666016 30.87817383 C-25.38982666 29.98670654 -25.20299316 29.09523926 -25.01049805 28.17675781 C-24.63279767 26.3861962 -24.25077761 24.59653987 -23.86425781 22.80786133 C-23.39567847 20.63562795 -22.94232668 18.46102671 -22.49462891 16.28442383 C-22.25357422 15.16036133 -22.01251953 14.03629883 -21.76416016 12.87817383 C-21.45285156 11.42604492 -21.45285156 11.42604492 -21.13525391 9.94458008 C-20.04064506 6.38577932 -18.82855982 3.32957176 -15.66235352 1.19213867 C-10.755542 -0.64913376 -5.19298666 -0.01591494 0 0 Z " fill="#0668A6" transform="translate(432.32666015625,222.684326171875)"/>
<path d="M0 0 C2.08297121 0.00315859 4.16451878 -0.02031136 6.24731445 -0.0456543 C7.56666992 -0.04629883 8.88602539 -0.04694336 10.24536133 -0.04760742 C11.4505542 -0.05058838 12.65574707 -0.05356934 13.89746094 -0.05664062 C17.43893564 0.34806143 19.33623641 1.16953196 22.15551758 3.31567383 C24.72837869 11.6255358 20.52103483 22.91273844 18.6340332 31.15893555 C18.0243978 33.90664938 17.52482265 36.6701736 17.03051758 39.44067383 C16.74176758 40.71942383 16.45301758 41.99817383 16.15551758 43.31567383 C13.51093379 44.63796572 11.47790457 44.41244577 8.53051758 44.37817383 C7.52762695 44.36915039 6.52473633 44.36012695 5.49145508 44.35083008 C4.7205957 44.33922852 3.94973633 44.32762695 3.15551758 44.31567383 C2.7882794 37.80637715 4.1789887 31.94532306 5.65551758 25.62817383 C6.1280592 23.58347347 6.59696195 21.53792786 7.06176758 19.49145508 C7.37597656 18.14434448 7.37597656 18.14434448 7.6965332 16.77001953 C8.27806567 14.07651647 8.27806567 14.07651647 8.15551758 10.31567383 C1.22551758 9.82067383 1.22551758 9.82067383 -5.84448242 9.31567383 C-6.22540039 11.25506836 -6.22540039 11.25506836 -6.61401367 13.23364258 C-8.17601915 21.14729569 -9.7411876 29.06142204 -11.46948242 36.94067383 C-11.68862305 37.94356445 -11.90776367 38.94645508 -12.13354492 39.97973633 C-12.84448242 42.31567383 -12.84448242 42.31567383 -14.84448242 44.31567383 C-17.69681166 44.52981266 -20.48777126 44.44024851 -23.34594727 44.3737793 C-24.17046387 44.35460449 -24.99498047 44.33542969 -25.84448242 44.31567383 C-25.26838423 36.06935853 -24.03084715 28.05419412 -22.46948242 19.94067383 C-22.2606543 18.79211914 -22.05182617 17.64356445 -21.83666992 16.46020508 C-21.62526367 15.35290039 -21.41385742 14.2455957 -21.19604492 13.10473633 C-20.91494873 11.61514404 -20.91494873 11.61514404 -20.62817383 10.09545898 C-19.56514722 6.32486055 -18.29661081 3.38070197 -15.08056641 1.02197266 C-10.24780142 -0.50452468 -5.02176097 -0.01596838 0 0 Z " fill="#0A6AA6" transform="translate(240.844482421875,222.684326171875)"/>
<path d="M0 0 C2.08297121 0.00315859 4.16451878 -0.02031136 6.24731445 -0.0456543 C7.56666992 -0.04629883 8.88602539 -0.04694336 10.24536133 -0.04760742 C11.4505542 -0.05058838 12.65574707 -0.05356934 13.89746094 -0.05664062 C17.49882012 0.35490473 19.39701534 0.96455347 22.15551758 3.31567383 C23.93624692 10.51166647 21.53379891 19.03775507 19.96801758 26.12817383 C19.77143555 27.12526367 19.57485352 28.12235352 19.37231445 29.1496582 C18.07244635 35.16104824 16.73562362 39.11087238 12.15551758 43.31567383 C8.70383719 44.57851889 5.28305131 44.42988989 1.63989258 44.41333008 C-0.23569336 44.40849609 -0.23569336 44.40849609 -2.14916992 44.40356445 C-4.10209961 44.39099609 -4.10209961 44.39099609 -6.09448242 44.37817383 C-8.07061523 44.37140625 -8.07061523 44.37140625 -10.08666992 44.36450195 C-13.33931983 44.35271699 -16.59187827 44.33626394 -19.84448242 44.31567383 C-19.84448242 43.98567383 -19.84448242 43.65567383 -19.84448242 43.31567383 C-4.99448242 42.82067383 -4.99448242 42.82067383 10.15551758 42.31567383 C7.60016622 37.59863206 7.60016622 37.59863206 5.15551758 35.31567383 C2.5984122 35.19667119 0.14410725 35.17500674 -2.40698242 35.25317383 C-4.89102604 35.31510289 -7.35856891 35.33621857 -9.84448242 35.31567383 C-10.84448242 34.31567383 -10.84448242 34.31567383 -10.99291992 31.23364258 C-10.84093605 27.22206819 -10.27232798 23.55893747 -9.46948242 19.62817383 C-9.08663086 17.70424805 -9.08663086 17.70424805 -8.69604492 15.74145508 C-8.00006567 12.94157523 -7.28347605 10.78698897 -5.84448242 8.31567383 C-3.38607637 8.28875697 -0.92796361 8.26887581 1.53051758 8.25317383 C2.22918945 8.24479492 2.92786133 8.23641602 3.64770508 8.2277832 C8.92895508 8.20239258 8.92895508 8.20239258 11.15551758 9.31567383 C11.15551758 10.30567383 11.15551758 11.29567383 11.15551758 12.31567383 C11.46176098 13.65548869 11.79003313 14.9907927 12.15551758 16.31567383 C14.13572179 15.8753339 14.13572179 15.8753339 16.15551758 14.31567383 C18.01498449 10.71344295 19.15551758 7.37734035 19.15551758 3.31567383 C8.26551758 2.98567383 -2.62448242 2.65567383 -13.84448242 2.31567383 C-14.17448242 3.30567383 -14.50448242 4.29567383 -14.84448242 5.31567383 C-15.83448242 5.31567383 -16.82448242 5.31567383 -17.84448242 5.31567383 C-16.84448242 2.31567383 -16.84448242 2.31567383 -15.20556641 1.14697266 C-10.36666498 -0.55672493 -5.07606178 -0.01614105 0 0 Z M6.15551758 33.31567383 C7.15551758 35.31567383 7.15551758 35.31567383 7.15551758 35.31567383 Z M9.15551758 36.31567383 C9.48551758 36.97567383 9.81551758 37.63567383 10.15551758 38.31567383 C10.48551758 37.65567383 10.81551758 36.99567383 11.15551758 36.31567383 C10.49551758 36.31567383 9.83551758 36.31567383 9.15551758 36.31567383 Z " fill="#0C6AA3" transform="translate(288.844482421875,222.684326171875)"/>
<path d="M0 0 C3.96 0 7.92 0 12 0 C12.14966927 5.69583605 11.67393862 10.82887302 10.5390625 16.40234375 C10.38843353 17.16551407 10.23780457 17.92868439 10.08261108 18.71498108 C9.76526135 20.31148129 9.44405837 21.90722007 9.11914062 23.50219727 C8.62186137 25.95296831 8.14230698 28.40677989 7.6640625 30.86132812 C7.3526146 32.41687769 7.04015148 33.9722244 6.7265625 35.52734375 C6.51237167 36.63033058 6.51237167 36.63033058 6.29385376 37.75559998 C5.92811463 39.51861202 5.47226352 41.26248921 5 43 C2.49860398 44.25069801 0.72607309 44.13302467 -2.0625 44.125 C-3.41021484 44.12886719 -3.41021484 44.12886719 -4.78515625 44.1328125 C-7 44 -7 44 -8 43 C-7.8648477 34.40897394 -6.22512166 25.96285958 -4.5625 17.5625 C-4.34529297 16.41845703 -4.12808594 15.27441406 -3.90429688 14.09570312 C-2.92902675 9.08463048 -1.90966215 4.77415538 0 0 Z " fill="#0A6AA6" transform="translate(109,223)"/>
<path d="M0 0 C3.00390625 -0.328125 3.00390625 -0.328125 6.5625 -0.25 C8.32787109 -0.22679687 8.32787109 -0.22679687 10.12890625 -0.203125 C13 0 13 0 14 1 C13.94382987 8.48466953 13.48940311 20.51059689 8 26 C5.21484375 26.23046875 5.21484375 26.23046875 1.9375 26.1875 C0.31134766 26.17783203 0.31134766 26.17783203 -1.34765625 26.16796875 C-4 26 -4 26 -5 25 C-5.24650894 19.88818299 -4.63993665 15.25434109 -3.625 10.25 C-3.36976563 8.95578125 -3.11453125 7.6615625 -2.8515625 6.328125 C-2 3 -2 3 0 0 Z " fill="#F9FBFD" transform="translate(283,232)"/>
<path d="M0 0 C1.77503906 0.03480469 1.77503906 0.03480469 3.5859375 0.0703125 C5.36871094 0.09738281 5.36871094 0.09738281 7.1875 0.125 C8.10273438 0.14820313 9.01796875 0.17140625 9.9609375 0.1953125 C10.2922729 5.60712408 9.68663739 10.68401004 8.7109375 16.0078125 C8.47890625 17.29300781 8.246875 18.57820313 8.0078125 19.90234375 C6.9609375 23.1953125 6.9609375 23.1953125 5.20703125 25.12890625 C2.40211769 26.46063043 0.36817363 26.52794898 -2.7265625 26.4453125 C-3.69980469 26.42984375 -4.67304688 26.414375 -5.67578125 26.3984375 C-8.0390625 26.1953125 -8.0390625 26.1953125 -9.0390625 25.1953125 C-8.97854979 18.11532582 -8.62652195 0.55440372 0 0 Z " fill="#F8FBFC" transform="translate(382.0390625,231.8046875)"/>
<path d="M0 0 C2.8912393 4.33685895 1.73562498 6.92418762 1 12 C4.96 12 8.92 12 13 12 C13.33 13.65 13.66 15.3 14 17 C12.44921875 19.29296875 12.44921875 19.29296875 10 21 C7.01953125 21.42578125 7.01953125 21.42578125 3.8125 21.3125 C2.74644531 21.28800781 1.68039063 21.26351563 0.58203125 21.23828125 C-2 21 -2 21 -3 20 C-2.45542363 13.24725306 -1.27988845 6.64796427 0 0 Z " fill="#EBF3F7" transform="translate(185,237)"/>
<path d="M0 0 C2.14576637 -0.02685938 4.29162645 -0.04633088 6.4375 -0.0625 C7.63246094 -0.07410156 8.82742187 -0.08570313 10.05859375 -0.09765625 C13 0 13 0 14 1 C14.1875 3.9375 14.1875 3.9375 14 7 C11.31907309 9.68092691 9.60832637 9.38670257 5.875 9.625 C4.77929688 9.69976562 3.68359375 9.77453125 2.5546875 9.8515625 C1.71164063 9.90054688 0.86859375 9.94953125 0 10 C-0.33 12.31 -0.66 14.62 -1 17 C-1.99 16.34 -2.98 15.68 -4 15 C-3.63495936 9.33557626 -2.9445679 4.99296295 0 0 Z " fill="#EEF5F9" transform="translate(140,232)"/>
<path d="M0 0 C0.79339783 0.0028299 1.58679565 0.00565979 2.40423584 0.00857544 C4.93110417 0.01974471 7.45761432 0.04484306 9.984375 0.0703125 C11.7005157 0.08034652 13.41666198 0.08947163 15.1328125 0.09765625 C19.33347074 0.11967336 23.5338622 0.15418063 27.734375 0.1953125 C27.404375 3.1653125 27.074375 6.1353125 26.734375 9.1953125 C17.824375 9.1953125 8.914375 9.1953125 -0.265625 9.1953125 C-0.265625 8.8653125 -0.265625 8.5353125 -0.265625 8.1953125 C8.314375 8.1953125 16.894375 8.1953125 25.734375 8.1953125 C25.734375 6.2153125 25.734375 4.2353125 25.734375 2.1953125 C20.82242131 2.23948201 15.91175109 2.30933007 11.00048828 2.40283203 C9.33034489 2.43102968 7.66006835 2.45225029 5.98974609 2.46630859 C3.58622128 2.48775587 1.18429517 2.53441095 -1.21875 2.5859375 C-1.96368713 2.58716614 -2.70862427 2.58839478 -3.47613525 2.58966064 C-6.90172282 2.68609918 -8.90790873 2.92922231 -11.69042969 4.99902344 C-13.76566922 7.89252233 -14.47085365 10.75130333 -15.265625 14.1953125 C-15.595625 14.1953125 -15.925625 14.1953125 -16.265625 14.1953125 C-16.76901297 8.90973884 -15.61239496 6.28580911 -12.265625 2.1953125 C-8.53134519 -0.47122826 -4.39726516 -0.05919462 0 0 Z " fill="#2B74A0" transform="translate(189.265625,222.8046875)"/>
<path d="M0 0 C0.76358826 -0.00807175 1.52717651 -0.01614349 2.31390381 -0.02445984 C3.93466918 -0.03831792 5.55546394 -0.04903234 7.17626953 -0.05688477 C9.64803083 -0.07405313 12.1184391 -0.11791543 14.58984375 -0.16210938 C16.16405265 -0.17224003 17.73827295 -0.18075497 19.3125 -0.1875 C20.04913879 -0.20500809 20.78577759 -0.22251617 21.54473877 -0.24055481 C25.22616395 -0.22510518 27.26223788 0.13675827 30.39819336 2.13110352 C32.421875 4.23828125 32.421875 4.23828125 32.91015625 6.37890625 C32.74739583 8.33203125 32.58463542 10.28515625 32.421875 12.23828125 C31.101875 12.23828125 29.781875 12.23828125 28.421875 12.23828125 C28.421875 10.25828125 28.421875 8.27828125 28.421875 6.23828125 C29.081875 5.90828125 29.741875 5.57828125 30.421875 5.23828125 C29.761875 4.90828125 29.101875 4.57828125 28.421875 4.23828125 C28.421875 3.57828125 28.421875 2.91828125 28.421875 2.23828125 C16.541875 2.23828125 4.661875 2.23828125 -7.578125 2.23828125 C-8.238125 5.86828125 -8.898125 9.49828125 -9.578125 13.23828125 C-10.82612788 8.24626973 -10.01407795 6.10456626 -8.578125 1.23828125 C-6.59436035 -0.7454834 -2.71564016 0.02693607 0 0 Z " fill="#357AA5" transform="translate(69.578125,222.76171875)"/>
<path d="M0 0 C2.4375 0.375 2.4375 0.375 5 1 C5.33 1.66 5.66 2.32 6 3 C6.66 3 7.32 3 8 3 C8.33 2.34 8.66 1.68 9 1 C9 1.66 9 2.32 9 3 C10.98 3 12.96 3 15 3 C15.33 3.99 15.66 4.98 16 6 C11.26101734 8.45153075 6.87937667 8.23154206 1.6875 8.125 C0.85154297 8.11597656 0.01558594 8.10695313 -0.84570312 8.09765625 C-2.89725969 8.07420989 -4.94866777 8.03834266 -7 8 C-7.33 6.35 -7.66 4.7 -8 3 C-7.67 3.99 -7.34 4.98 -7 6 C-5.700625 5.87625 -4.40125 5.7525 -3.0625 5.625 C-2.33160156 5.55539062 -1.60070312 5.48578125 -0.84765625 5.4140625 C-0.23792969 5.27742188 0.37179688 5.14078125 1 5 C1.33 4.34 1.66 3.68 2 3 C1.34 3 0.68 3 0 3 C0 2.01 0 1.02 0 0 Z " fill="#1B72A8" transform="translate(77,259)"/>
<path d="M0 0 C0.66 0 1.32 0 2 0 C1.85769192 1.41702513 1.71099254 2.8336096 1.5625 4.25 C1.48128906 5.03890625 1.40007812 5.8278125 1.31640625 6.640625 C1.02365007 8.82364639 0.57935581 10.8773182 0 13 C-3.375 13.125 -3.375 13.125 -7 13 C-7.66 12.34 -8.32 11.68 -9 11 C-8.54545455 5.54545455 -8.54545455 5.54545455 -6 3 C-5.154375 2.835 -4.30875 2.67 -3.4375 2.5 C-2.633125 2.335 -1.82875 2.17 -1 2 C-0.67 1.34 -0.34 0.68 0 0 Z " fill="#37789E" transform="translate(359,280)"/>
<path d="M0 0 C0.99 0 1.98 0 3 0 C2.01 4.29 1.02 8.58 0 13 C-2.33294775 13.04241723 -4.66702567 13.04092937 -7 13 C-8 12 -8 12 -8.1875 8.5625 C-8 5 -8 5 -6 3 C-2.875 3.375 -2.875 3.375 0 4 C0 2.68 0 1.36 0 0 Z " fill="#377AA2" transform="translate(176,280)"/>
<path d="M0 0 C0.66 0 1.32 0 2 0 C1.85769192 1.41702513 1.71099254 2.8336096 1.5625 4.25 C1.48128906 5.03890625 1.40007812 5.8278125 1.31640625 6.640625 C1.02365007 8.82364639 0.57935581 10.8773182 0 13 C-3.375 13.125 -3.375 13.125 -7 13 C-7.66 12.34 -8.32 11.68 -9 11 C-8.54545455 5.54545455 -8.54545455 5.54545455 -6 3 C-3.375 2.875 -3.375 2.875 -1 3 C-0.67 2.01 -0.34 1.02 0 0 Z " fill="#2F719B" transform="translate(206,280)"/>
<path d="M0 0 C-0.14168137 1.43791516 -0.28851043 2.8753237 -0.4375 4.3125 C-0.51871094 5.11300781 -0.59992188 5.91351563 -0.68359375 6.73828125 C-1 9 -1 9 -2 12 C-4.70879335 13.35439668 -7.00933268 13.06501451 -10 13 C-10 12.34 -10 11.68 -10 11 C-8.35 11 -6.7 11 -5 11 C-4.67 10.34 -4.34 9.68 -4 9 C-4.804375 9.020625 -5.60875 9.04125 -6.4375 9.0625 C-9 9 -9 9 -10 8 C-9.6875 4.5 -9.6875 4.5 -9 1 C-6.04335481 -0.4783226 -3.25770263 -0.06032783 0 0 Z " fill="#3878A1" transform="translate(239,283)"/>
<path d="M0 0 C2.16636295 0.00316364 4.33136394 -0.02032875 6.49755859 -0.0456543 C7.87906729 -0.04792717 9.26057965 -0.04863084 10.64208984 -0.04760742 C11.89441406 -0.05058838 13.14673828 -0.05356934 14.43701172 -0.05664062 C17.87188373 0.33851476 19.29445739 0.84518315 21.67333984 3.31567383 C22.06396484 6.01489258 22.06396484 6.01489258 21.92333984 9.00317383 C21.88724609 9.99704102 21.85115234 10.9909082 21.81396484 12.01489258 C21.76755859 12.77415039 21.72115234 13.5334082 21.67333984 14.31567383 C21.34333984 14.31567383 21.01333984 14.31567383 20.67333984 14.31567383 C20.54958984 13.18129883 20.42583984 12.04692383 20.29833984 10.87817383 C20.09208984 9.70254883 19.88583984 8.52692383 19.67333984 7.31567383 C19.01333984 6.98567383 18.35333984 6.65567383 17.67333984 6.31567383 C18.00333984 4.99567383 18.33333984 3.67567383 18.67333984 2.31567383 C7.78333984 2.31567383 -3.10666016 2.31567383 -14.32666016 2.31567383 C-14.65666016 2.97567383 -14.98666016 3.63567383 -15.32666016 4.31567383 C-15.98666016 3.65567383 -16.64666016 2.99567383 -17.32666016 2.31567383 C-12.1540301 -0.93664159 -5.89410975 -0.01806367 0 0 Z " fill="#29709D" transform="translate(432.32666015625,222.684326171875)"/>
<path d="M0 0 C0.67388763 -0.00287018 1.34777527 -0.00574036 2.04208374 -0.00869751 C3.45905402 -0.01072994 4.87605288 -0.00525768 6.29296875 0.00732422 C8.46157262 0.02344222 10.62832732 0.00742416 12.796875 -0.01171875 C14.17708744 -0.00973715 15.55729873 -0.0058952 16.9375 0 C18.18869629 0.00338379 19.43989258 0.00676758 20.72900391 0.01025391 C23.8359375 0.3984375 23.8359375 0.3984375 25.76708984 1.92333984 C26.11980957 2.41012207 26.4725293 2.8969043 26.8359375 3.3984375 C25.88227295 3.38272705 24.9286084 3.3670166 23.94604492 3.35083008 C20.40706837 3.29652072 16.86812864 3.26208417 13.32885742 3.23364258 C11.79721889 3.21855814 10.26562352 3.19808772 8.73413086 3.17211914 C6.53228096 3.13571903 4.33100217 3.11870837 2.12890625 3.10546875 C1.10219063 3.08224297 1.10219063 3.08224297 0.05473328 3.05854797 C-3.76507267 3.01648978 -3.76507267 3.01648978 -6.9519043 4.9050293 C-7.3519165 5.397854 -7.75192871 5.89067871 -8.1640625 6.3984375 C-10.8515625 6.5859375 -10.8515625 6.5859375 -13.1640625 6.3984375 C-12.1640625 3.3984375 -12.1640625 3.3984375 -10.04931641 1.73583984 C-6.50506295 0.0929713 -3.90098037 0.01053099 0 0 Z " fill="#28709D" transform="translate(378.1640625,222.6015625)"/>
<path d="M0 0 C2.12472576 -0.05386629 4.24983652 -0.09273071 6.375 -0.125 C7.55835938 -0.14820313 8.74171875 -0.17140625 9.9609375 -0.1953125 C13 0 13 0 15 2 C14.96712417 4.72869407 14.43602229 7.2966618 14 10 C13.01 9.67 12.02 9.34 11 9 C11.33 7.02 11.66 5.04 12 3 C11.01 3.33 10.02 3.66 9 4 C8.67 5.98 8.34 7.96 8 10 C7.01 10 6.02 10 5 10 C5 7.69 5 5.38 5 3 C4.34 3 3.68 3 3 3 C2.34 5.31 1.68 7.62 1 10 C0.34 10 -0.32 10 -1 10 C-0.67 6.7 -0.34 3.4 0 0 Z " fill="#34759E" transform="translate(321,283)"/>
<path d="M0 0 C1.670625 0.061875 1.670625 0.061875 3.375 0.125 C3.045 3.425 2.715 6.725 2.375 10.125 C-1 10.25 -1 10.25 -4.625 10.125 C-5.285 9.465 -5.945 8.805 -6.625 8.125 C-6.17945912 2.77850948 -5.84477173 0.20154385 0 0 Z " fill="#236795" transform="translate(222.625,282.875)"/>
<path d="M0 0 C0.66 0.66 1.32 1.32 2 2 C4.60650099 2.18752484 7.10471565 2.25568318 9.7109375 2.23046875 C10.85775497 2.22978142 10.85775497 2.22978142 12.02774048 2.2290802 C13.64676462 2.22605682 15.26578582 2.21816795 16.88476562 2.20581055 C19.35817834 2.18762369 21.83121508 2.18530042 24.3046875 2.18554688 C25.87760739 2.18062881 27.45052475 2.17479923 29.0234375 2.16796875 C29.76210052 2.16685593 30.50076355 2.1657431 31.2618103 2.16459656 C34.64337919 2.13350883 37.76693072 2.05403316 41 1 C38.76122207 3.57459462 37.34520462 4.42256218 34 5 C31.45364521 5.08298675 28.93606117 5.11639258 26.390625 5.09765625 C25.66381531 5.0962413 24.93700562 5.09482635 24.18817139 5.09336853 C21.87540506 5.08778792 19.56273688 5.07523904 17.25 5.0625 C15.67838682 5.05748249 14.10677211 5.05292002 12.53515625 5.04882812 C8.69006657 5.03782485 4.8450499 5.02057361 1 5 C0.67 3.35 0.34 1.7 0 0 Z " fill="#206D9C" transform="translate(310,262)"/>
<path d="M0 0 C2.375 0.6875 2.375 0.6875 3.375 1.6875 C3.5625 4.625 3.5625 4.625 3.375 7.6875 C1.375 9.6875 1.375 9.6875 -1.6875 9.875 C-4.625 9.6875 -4.625 9.6875 -5.625 8.6875 C-5.875 5.25 -5.875 5.25 -5.625 1.6875 C-2.625 -0.3125 -2.625 -0.3125 0 0 Z " fill="#34739A" transform="translate(155.625,283.3125)"/>
<path d="M0 0 C0.92054342 3.01268757 1.27861489 4.42729162 -0.125 7.3125 C-2 9 -2 9 -4.5625 9.375 C-7 9 -7 9 -9 7 C-9.375 4.5625 -9.375 4.5625 -9 2 C-6.04897468 -1.27891703 -4.09533092 -1.25135112 0 0 Z " fill="#3879A2" transform="translate(311,284)"/>
<path d="M0 0 C2.375 0.75 2.375 0.75 3.375 1.75 C3.5625 4.6875 3.5625 4.6875 3.375 7.75 C1.375 9.75 1.375 9.75 -1.75 9.875 C-3.173125 9.813125 -3.173125 9.813125 -4.625 9.75 C-5.95578101 3.33805513 -5.95578101 3.33805513 -4.5 0.75 C-2.625 -0.25 -2.625 -0.25 0 0 Z " fill="#2F7097" transform="translate(260.625,283.25)"/>
<path d="M0 0 C2.375 0.75 2.375 0.75 3.375 1.75 C3.5625 4.6875 3.5625 4.6875 3.375 7.75 C1.375 9.75 1.375 9.75 -1.125 10 C-3.625 9.75 -3.625 9.75 -5.625 7.75 C-5.99296448 4.87987704 -6.00009409 3.34225382 -4.4375 0.875 C-2.625 -0.25 -2.625 -0.25 0 0 Z " fill="#3579A1" transform="translate(385.625,283.25)"/>
<path d="M0 0 C0.65547821 -0.00191345 1.31095642 -0.0038269 1.98629761 -0.00579834 C3.36635728 -0.00715503 4.74642993 -0.00349471 6.12646484 0.00488281 C8.24215134 0.01562482 10.35699543 0.00495315 12.47265625 -0.0078125 C13.81510604 -0.00649149 15.15755531 -0.0039303 16.5 0 C17.72090332 0.00225586 18.94180664 0.00451172 20.19970703 0.00683594 C23.1171875 0.265625 23.1171875 0.265625 25.1171875 2.265625 C14.2271875 2.265625 3.3371875 2.265625 -7.8828125 2.265625 C-8.2128125 3.255625 -8.5428125 4.245625 -8.8828125 5.265625 C-9.8728125 5.265625 -10.8628125 5.265625 -11.8828125 5.265625 C-10.8828125 2.265625 -10.8828125 2.265625 -9.25048828 1.09472656 C-6.09110472 -0.01161151 -3.34648628 0.00617189 0 0 Z " fill="#26719D" transform="translate(282.8828125,222.734375)"/>
<path d="M0 0 C0.6705542 0.16298584 1.3411084 0.32597168 2.03198242 0.49389648 C5.56446198 1.09625152 8.90421503 1.1119354 12.48828125 1.09765625 C13.5430793 1.09553383 13.5430793 1.09553383 14.6191864 1.09336853 C16.85033544 1.08780109 19.08138164 1.07525475 21.3125 1.0625 C22.83137875 1.05748079 24.35025909 1.05291862 25.86914062 1.04882812 C29.57946012 1.03784236 33.28972001 1.02060034 37 1 C36 3 36 3 34.3359375 3.61010742 C28.9570881 4.50789405 23.43884851 4.27154482 18 4.3125 C16.71609375 4.34150391 15.4321875 4.37050781 14.109375 4.40039062 C12.87703125 4.40876953 11.6446875 4.41714844 10.375 4.42578125 C9.24835938 4.44036377 8.12171875 4.45494629 6.9609375 4.4699707 C3.39072687 3.90329397 2.24019332 2.76028698 0 0 Z " fill="#28749F" transform="translate(169,263)"/>
<path d="M0 0 C0.33 0 0.66 0 1 0 C1 3.3 1 6.6 1 10 C1.99 10 2.98 10 4 10 C4.99 11.98 5.98 13.96 7 16 C4.45299007 17.60367292 3.38598454 18.06442578 0.35546875 17.55859375 C-0.42183594 17.37425781 -1.19914063 17.18992187 -2 17 C-1.85848172 14.9163691 -1.71162064 12.83310062 -1.5625 10.75 C-1.48128906 9.58984375 -1.40007812 8.4296875 -1.31640625 7.234375 C-1.06752213 4.69022624 -0.71885058 2.44046752 0 0 Z " fill="#106BA5" transform="translate(170,246)"/>
<path d="M0 0 C2.01822917 0.06510417 4.03645833 0.13020833 6.0546875 0.1953125 C6.0546875 1.1853125 6.0546875 2.1753125 6.0546875 3.1953125 C3.7446875 3.1953125 1.4346875 3.1953125 -0.9453125 3.1953125 C-0.9453125 5.1753125 -0.9453125 7.1553125 -0.9453125 9.1953125 C1.0346875 9.1953125 3.0146875 9.1953125 5.0546875 9.1953125 C4.7246875 10.1853125 4.3946875 11.1753125 4.0546875 12.1953125 C-1.29496285 12.55195586 -1.29496285 12.55195586 -3.8828125 11.1328125 C-5.5943229 8.01182295 -4.73823241 5.54997366 -3.9453125 2.1953125 C-1.9453125 0.1953125 -1.9453125 0.1953125 0 0 Z " fill="#4A80A4" transform="translate(100.9453125,280.8046875)"/>
<path d="M0 0 C0.33 0 0.66 0 1 0 C1.07622858 3.96388638 0.9681648 7.1273408 0 11 C3.3 11 6.6 11 10 11 C10 9.02 10 7.04 10 5 C10.66 5 11.32 5 12 5 C12.33 4.34 12.66 3.68 13 3 C12.25 10.75 12.25 10.75 10 13 C7.3984375 13.1953125 7.3984375 13.1953125 4.375 13.125 C2.87066406 13.09792969 2.87066406 13.09792969 1.3359375 13.0703125 C0.56507812 13.04710937 -0.20578125 13.02390625 -1 13 C-2.07310858 9.72814447 -1.89263102 7.57052408 -1.0625 4.25 C-0.86785156 3.45078125 -0.67320313 2.6515625 -0.47265625 1.828125 C-0.31667969 1.22484375 -0.16070312 0.6215625 0 0 Z " fill="#2D739F" transform="translate(121,254)"/>
<path d="M0 0 C2.14576637 -0.02685938 4.29162645 -0.04633088 6.4375 -0.0625 C7.63246094 -0.07410156 8.82742187 -0.08570313 10.05859375 -0.09765625 C13 0 13 0 14 1 C14.62943724 7.10069937 13.8849245 12.18182751 11.734375 17.8828125 C10.68584148 20.90571234 10.33768793 23.82573347 10 27 C9.34 27 8.68 27 8 27 C8.20496094 25.865625 8.40992188 24.73125 8.62109375 23.5625 C8.8933382 22.04168618 9.16546745 20.52085174 9.4375 19 C9.63956055 17.88431641 9.63956055 17.88431641 9.84570312 16.74609375 C10.71983371 11.84243436 11.42093462 6.94735474 12 2 C8.04 1.67 4.08 1.34 0 1 C0 0.67 0 0.34 0 0 Z " fill="#1E6C9B" transform="translate(237,231)"/>
<path d="M0 0 C2.875 -0.125 2.875 -0.125 6 0 C6.66 0.66 7.32 1.32 8 2 C7.96712417 4.72869407 7.43602229 7.2966618 7 10 C6.34 10 5.68 10 5 10 C5 7.36 5 4.72 5 2 C3.68 2.33 2.36 2.66 1 3 C0.67 5.31 0.34 7.62 0 10 C-0.66 10 -1.32 10 -2 10 C-1.125 2.25 -1.125 2.25 0 0 Z " fill="#36729A" transform="translate(244,283)"/>
<path d="M0 0 C2.33294775 -0.04241723 4.66702567 -0.04092937 7 0 C7.33 0.33 7.66 0.66 8 1 C7.91062197 2.52519276 7.75462854 4.04681929 7.5625 5.5625 C7.46066406 6.38878906 7.35882813 7.21507812 7.25390625 8.06640625 C7.17011719 8.70449219 7.08632812 9.34257812 7 10 C6.34 10 5.68 10 5 10 C5.33 7.36 5.66 4.72 6 2 C3.95163118 2.56362302 3.95163118 2.56362302 2 4 C1.18415432 7.05908413 1.18415432 7.05908413 1 10 C0.01 9.67 -0.98 9.34 -2 9 C-1.34 6.03 -0.68 3.06 0 0 Z " fill="#317096" transform="translate(122,283)"/>
<path d="M0 0 C1.2065625 0.0309375 1.2065625 0.0309375 2.4375 0.0625 C2.4375 0.7225 2.4375 1.3825 2.4375 2.0625 C1.1175 2.3925 -0.2025 2.7225 -1.5625 3.0625 C-0.2425 3.7225 1.0775 4.3825 2.4375 5.0625 C2.1075 6.7125 1.7775 8.3625 1.4375 10.0625 C-0.8725 10.0625 -3.1825 10.0625 -5.5625 10.0625 C-5.5625 9.4025 -5.5625 8.7425 -5.5625 8.0625 C-3.9125 8.0625 -2.2625 8.0625 -0.5625 8.0625 C-1.8825 7.0725 -3.2025 6.0825 -4.5625 5.0625 C-3.43829114 0.08386076 -3.43829114 0.08386076 0 0 Z " fill="#366F98" transform="translate(271.5625,282.9375)"/>
<path d="M0 0 C0.33 0 0.66 0 1 0 C1 3.63 1 7.26 1 11 C4.3 11 7.6 11 11 11 C11.33 9.35 11.66 7.7 12 6 C13 8 13 8 12.6875 10.0625 C12 12 12 12 10 13 C8.3146804 13.09534254 6.62550734 13.12985758 4.9375 13.125 C3.58978516 13.12886719 3.58978516 13.12886719 2.21484375 13.1328125 C0 13 0 13 -1 12 C-0.90997602 9.97591245 -0.75358962 7.95455713 -0.5625 5.9375 C-0.46066406 4.83277344 -0.35882813 3.72804688 -0.25390625 2.58984375 C-0.17011719 1.73519531 -0.08632812 0.88054687 0 0 Z " fill="#3077A2" transform="translate(102,254)"/>
<path d="M0 0 C0.763125 0.20625 1.52625 0.4125 2.3125 0.625 C2.6425 1.945 2.9725 3.265 3.3125 4.625 C2.6525 4.625 1.9925 4.625 1.3125 4.625 C0.9825 3.965 0.6525 3.305 0.3125 2.625 C-0.6775 2.625 -1.6675 2.625 -2.6875 2.625 C-3.0175 4.275 -3.3475 5.925 -3.6875 7.625 C-2.0375 7.625 -0.3875 7.625 1.3125 7.625 C1.3125 8.285 1.3125 8.945 1.3125 9.625 C-0.68704746 9.66754356 -2.68791636 9.66580783 -4.6875 9.625 C-5.6875 8.625 -5.6875 8.625 -5.9375 5.1875 C-5.855 4.011875 -5.7725 2.83625 -5.6875 1.625 C-2.6875 -0.375 -2.6875 -0.375 0 0 Z " fill="#286991" transform="translate(344.6875,283.375)"/>
<path d="M0 0 C0 0.66 0 1.32 0 2 C-1.65 2 -3.3 2 -5 2 C-5.33 3.32 -5.66 4.64 -6 6 C-4.35 6 -2.7 6 -1 6 C-1.33 6.99 -1.66 7.98 -2 9 C-4.375 9.125 -4.375 9.125 -7 9 C-9 7 -9 7 -9.3125 4.5625 C-9 2 -9 2 -7.875 0.125 C-5.07848948 -1.55290631 -3.06309468 -0.74875648 0 0 Z " fill="#317298" transform="translate(300,284)"/>
<path d="M0 0 C2.625 0.375 2.625 0.375 5 1 C5.33 2.32 5.66 3.64 6 5 C5.34 5 4.68 5 4 5 C4 4.01 4 3.02 4 2 C3.01 2.33 2.02 2.66 1 3 C0.26676204 5.01508358 0.26676204 5.01508358 0 7 C1.65 7.33 3.3 7.66 5 8 C4.67 8.66 4.34 9.32 4 10 C1.625 10.1875 1.625 10.1875 -1 10 C-3 7 -3 7 -2.75 4.4375 C-2 2 -2 2 0 0 Z " fill="#327097" transform="translate(183,283)"/>
<path d="M0 0 C1.1875 1.5625 1.1875 1.5625 2 4 C0.625 7.75 0.625 7.75 -1 11 C-0.34 10.67 0.32 10.34 1 10 C0.6875 11.9375 0.6875 11.9375 0 14 C-0.99 14.33 -1.98 14.66 -3 15 C-3.33 14.01 -3.66 13.02 -4 12 C-7.63 12 -11.26 12 -15 12 C-15 11.34 -15 10.68 -15 10 C-14.22914062 9.93941406 -13.45828125 9.87882812 -12.6640625 9.81640625 C-11.66117187 9.73261719 -10.65828125 9.64882813 -9.625 9.5625 C-8.62726563 9.48128906 -7.62953125 9.40007812 -6.6015625 9.31640625 C-4.02072387 9.15034374 -4.02072387 9.15034374 -2 8 C-1.31527335 6.11235097 -1.31527335 6.11235097 -0.875 3.9375 C-0.70742187 3.20402344 -0.53984375 2.47054687 -0.3671875 1.71484375 C-0.24601562 1.14894531 -0.12484375 0.58304688 0 0 Z " fill="#13699F" transform="translate(85,248)"/>
<path d="M0 0 C2.31 0 4.62 0 7 0 C7 2.31 7 4.62 7 7 C5.02 7 3.04 7 1 7 C0.67 4.69 0.34 2.38 0 0 Z " fill="#CFDCE1" transform="translate(442,84)"/>
<path d="M0 0 C0.33 1.32 0.66 2.64 1 4 C0.34 4 -0.32 4 -1 4 C-1.33 3.34 -1.66 2.68 -2 2 C-2.99 2 -3.98 2 -5 2 C-5.33 3.65 -5.66 5.3 -6 7 C-4.35 7 -2.7 7 -1 7 C-1 7.66 -1 8.32 -1 9 C-2.98 9 -4.96 9 -7 9 C-8.33078101 2.58805513 -8.33078101 2.58805513 -6.875 0 C-4.28103624 -1.38344734 -2.74857743 -0.81714464 0 0 Z " fill="#25698E" transform="translate(117,284)"/>
<path d="M0 0 C3.125 0.375 3.125 0.375 6 1 C6 1.66 6 2.32 6 3 C4.35 3 2.7 3 1 3 C0.67 4.32 0.34 5.64 0 7 C1.65 7 3.3 7 5 7 C4.67 7.99 4.34 8.98 4 10 C1.625 10.125 1.625 10.125 -1 10 C-1.66 9.34 -2.32 8.68 -3 8 C-2.54545455 2.54545455 -2.54545455 2.54545455 0 0 Z " fill="#367396" transform="translate(372,283)"/>
<path d="M0 0 C0.66 0 1.32 0 2 0 C2 0.66 2 1.32 2 2 C2.66 2 3.32 2 4 2 C4 2.66 4 3.32 4 4 C3.01 4 2.02 4 1 4 C1 5.65 1 7.3 1 9 C1.66 9 2.32 9 3 9 C3 9.66 3 10.32 3 11 C1.35 10.67 -0.3 10.34 -2 10 C-2.1953125 3.9453125 -2.1953125 3.9453125 -2 2 C-1.34 1.34 -0.68 0.68 0 0 Z " fill="#35769D" transform="translate(136,282)"/>
<path d="M0 0 C0.99 1.32 1.98 2.64 3 4 C1.02 4.99 1.02 4.99 -1 6 C-0.88140625 6.59167969 -0.7628125 7.18335938 -0.640625 7.79296875 C0.42538593 14.32761578 0.42538593 14.32761578 -1.9375 18.0625 C-2.618125 18.701875 -3.29875 19.34125 -4 20 C-3.56615452 12.96871122 -2.25678003 6.670985 0 0 Z " fill="#2070A3" transform="translate(364,234)"/>
<path d="M0 0 C0.33 0 0.66 0 1 0 C1.125 5.75 1.125 5.75 0 8 C-2.33294775 8.04241723 -4.66702567 8.04092937 -7 8 C-8 7 -8 7 -8.0625 3.9375 C-8.041875 2.968125 -8.02125 1.99875 -8 1 C-7.34 1 -6.68 1 -6 1 C-6 2.65 -6 4.3 -6 6 C-4.04105639 5.88693303 -4.04105639 5.88693303 -2 5 C-0.70339566 2.50965614 -0.70339566 2.50965614 0 0 Z " fill="#226896" transform="translate(176,285)"/>
<path d="M0 0 C0.66 0 1.32 0 2 0 C2 0.66 2 1.32 2 2 C2.66 2 3.32 2 4 2 C4 2.66 4 3.32 4 4 C3.01 4 2.02 4 1 4 C1 5.65 1 7.3 1 9 C1.66 9 2.32 9 3 9 C3 9.66 3 10.32 3 11 C1.35 10.67 -0.3 10.34 -2 10 C-2 7.36 -2 4.72 -2 2 C-1.34 2 -0.68 2 0 2 C0 1.34 0 0.68 0 0 Z " fill="#266E97" transform="translate(279,282)"/>
<path d="M0 0 C1.10844919 3.32534757 0.84454356 5.62182575 0 9 C-0.99 8.67 -1.98 8.34 -3 8 C-2.67 6.02 -2.34 4.04 -2 2 C-3.32 2.33 -4.64 2.66 -6 3 C-6.33 2.01 -6.66 1.02 -7 0 C-3.86650268 -1.04449911 -3.01031744 -0.93423645 0 0 Z " fill="#3D7CA2" transform="translate(335,284)"/>
<path d="M0 0 C0.33 0 0.66 0 1 0 C1 2.31 1 4.62 1 7 C4.3 7.33 7.6 7.66 11 8 C10.67 8.66 10.34 9.32 10 10 C6.37 10 2.74 10 -1 10 C-1.125 2.25 -1.125 2.25 0 0 Z " fill="#1A6998" transform="translate(436,257)"/>
<path d="M0 0 C3.10408807 -0.05807043 6.2080364 -0.09361914 9.3125 -0.125 C10.19357422 -0.14175781 11.07464844 -0.15851563 11.98242188 -0.17578125 C12.82998047 -0.18222656 13.67753906 -0.18867188 14.55078125 -0.1953125 C15.72120972 -0.21102295 15.72120972 -0.21102295 16.9152832 -0.22705078 C19 0 19 0 22 2 C21.67 3.32 21.34 4.64 21 6 C19.68 5.67 18.36 5.34 17 5 C17.33 3.68 17.66 2.36 18 1 C12.06 1 6.12 1 0 1 C0 0.67 0 0.34 0 0 Z " fill="#136699" transform="translate(333,241)"/>
<path d="M0 0 C1.48831242 0.00667405 2.97660807 0.01863442 4.46484375 0.03515625 C5.22345703 0.03966797 5.98207031 0.04417969 6.76367188 0.04882812 C8.64326246 0.06064945 10.52281274 0.07858547 12.40234375 0.09765625 C12.40234375 0.42765625 12.40234375 0.75765625 12.40234375 1.09765625 C7.78234375 1.09765625 3.16234375 1.09765625 -1.59765625 1.09765625 C-1.59765625 1.75765625 -1.59765625 2.41765625 -1.59765625 3.09765625 C-2.58765625 3.42765625 -3.57765625 3.75765625 -4.59765625 4.09765625 C-6.31333286 7.60060496 -6.31333286 7.60060496 -7.59765625 11.09765625 C-8.34765625 9.47265625 -8.34765625 9.47265625 -8.59765625 7.09765625 C-4.49432659 0.12199584 -4.49432659 0.12199584 0 0 Z " fill="#1E6E9F" transform="translate(324.59765625,223.90234375)"/>
<path d="M0 0 C0.66 0 1.32 0 2 0 C1.85769192 1.41702513 1.71099254 2.8336096 1.5625 4.25 C1.48128906 5.03890625 1.40007812 5.8278125 1.31640625 6.640625 C1.02365007 8.82364639 0.57935581 10.8773182 0 13 C-2.31 13 -4.62 13 -7 13 C-6.34 12.34 -5.68 11.68 -5 11 C-4.01 11 -3.02 11 -2 11 C-1.34 7.37 -0.68 3.74 0 0 Z " fill="#276B93" transform="translate(359,280)"/>
<path d="M0 0 C0.66 0.66 1.32 1.32 2 2 C2.66 1.67 3.32 1.34 4 1 C4.36923077 6.53846154 4.36923077 6.53846154 2.5 8.875 C1.7575 9.431875 1.7575 9.431875 1 10 C0.01 9.34 -0.98 8.68 -2 8 C-1.34 5.36 -0.68 2.72 0 0 Z " fill="#1571AB" transform="translate(294,248)"/>
<path d="M0 0 C2.31 0 4.62 0 7 0 C7 1.98 7 3.96 7 6 C4.69 5.01 2.38 4.02 0 3 C0 2.01 0 1.02 0 0 Z " fill="#D5DEE3" transform="translate(432,74)"/>
<path d="M0 0 C1.0516399 3.15491969 0.98032423 4.03355588 0.1875 7.125 C0.01605469 7.82882812 -0.15539062 8.53265625 -0.33203125 9.2578125 C-1 11 -1 11 -3 12 C-4.99960012 12.039992 -7.00047242 12.04346799 -9 12 C-9 11.34 -9 10.68 -9 10 C-8.195625 10.020625 -7.39125 10.04125 -6.5625 10.0625 C-4.06645115 10.29633621 -4.06645115 10.29633621 -3 9 C-2.855625 7.865625 -2.71125 6.73125 -2.5625 5.5625 C-2 2 -2 2 0 0 Z " fill="#1F6794" transform="translate(238,284)"/>
<path d="M0 0 C-0.3125 1.9375 -0.3125 1.9375 -1 4 C-1.99 4.33 -2.98 4.66 -4 5 C-4 4.01 -4 3.02 -4 2 C-5.65 1.67 -7.3 1.34 -9 1 C-8 -1 -8 -1 -6.1875 -1.75 C-3.50171361 -2.05694702 -2.2747813 -1.38111722 0 0 Z " fill="#E5EFF5" transform="translate(278,286)"/>
<path d="M0 0 C2.0625 0.4375 2.0625 0.4375 4 1 C3.67 2.65 3.34 4.3 3 6 C1.35 5.67 -0.3 5.34 -2 5 C-1.125 1.125 -1.125 1.125 0 0 Z " fill="#D7E7F1" transform="translate(354,285)"/>
<path d="M0 0 C0.66 0.66 1.32 1.32 2 2 C1.625 4.125 1.625 4.125 1 6 C2.65 6.33 4.3 6.66 6 7 C5.67 7.66 5.34 8.32 5 9 C2.625 9.125 2.625 9.125 0 9 C-2 7 -2 7 -2.25 4.5 C-2 2 -2 2 0 0 Z " fill="#266B96" transform="translate(304,284)"/>
<path d="M0 0 C1.485 0.99 1.485 0.99 3 2 C3.36328125 4.49609375 3.36328125 4.49609375 3.3125 7.4375 C3.30863281 8.40558594 3.30476563 9.37367188 3.30078125 10.37109375 C3 13 3 13 1 16 C1.01160156 15.32453125 1.02320313 14.6490625 1.03515625 13.953125 C1.04417969 13.06109375 1.05320312 12.1690625 1.0625 11.25 C1.07990234 9.92742187 1.07990234 9.92742187 1.09765625 8.578125 C1.00792431 6.20920189 0.62721944 4.27181845 0 2 C0 1.34 0 0.68 0 0 Z " fill="#2D77A3" transform="translate(308,224)"/>
<path d="M0 0 C2.0625 0.4375 2.0625 0.4375 4 1 C3.67 2.65 3.34 4.3 3 6 C1.68 6 0.36 6 -1 6 C-1.042721 4.33388095 -1.04063832 2.66617115 -1 1 C-0.67 0.67 -0.34 0.34 0 0 Z " fill="#E0EDF5" transform="translate(220,285)"/>
<path d="M0 0 C2.0625 0.4375 2.0625 0.4375 4 1 C3.67 2.65 3.34 4.3 3 6 C1.68 6 0.36 6 -1 6 C-1.042721 4.33388095 -1.04063832 2.66617115 -1 1 C-0.67 0.67 -0.34 0.34 0 0 Z " fill="#E0EEF6" transform="translate(201,285)"/>
<path d="M0 0 C2.0625 0.4375 2.0625 0.4375 4 1 C3.67 2.65 3.34 4.3 3 6 C1.68 6 0.36 6 -1 6 C-1.042721 4.33388095 -1.04063832 2.66617115 -1 1 C-0.67 0.67 -0.34 0.34 0 0 Z " fill="#E0EEF6" transform="translate(171,285)"/>
<path d="M0 0 C0.99 0 1.98 0 3 0 C3 3.63 3 7.26 3 11 C2.34 11 1.68 11 1 11 C0.67 7.37 0.34 3.74 0 0 Z " fill="#CEDCE4" transform="translate(497,139)"/>
<path d="M0 0 C1.98 0.495 1.98 0.495 4 1 C3.67 2.65 3.34 4.3 3 6 C1.68 5.67 0.36 5.34 -1 5 C-0.67 3.35 -0.34 1.7 0 0 Z " fill="#DEEDF4" transform="translate(153,285)"/>
<path d="M0 0 C1.65 0 3.3 0 5 0 C5 0.66 5 1.32 5 2 C4.01 2.66 3.02 3.32 2 4 C1.26656572 7.06556598 1.26656572 7.06556598 1 10 C0.34 10 -0.32 10 -1 10 C-1.125 3.375 -1.125 3.375 0 0 Z " fill="#2F6F97" transform="translate(143,283)"/>
<path d="M0 0 C0.99 0.33 1.98 0.66 3 1 C2.67 2.65 2.34 4.3 2 6 C0.68 6 -0.64 6 -2 6 C-1.125 1.125 -1.125 1.125 0 0 Z " fill="#EBF5FB" transform="translate(259,285)"/>
<path d="M0 0 C0.33 0 0.66 0 1 0 C1 2.64 1 5.28 1 8 C-0.32 8 -1.64 8 -3 8 C-3 6.02 -3 4.04 -3 2 C-2.01 2 -1.02 2 0 2 C0 1.34 0 0.68 0 0 Z " fill="#2076AF" transform="translate(101,227)"/>
<path d="M0 0 C0.99 0 1.98 0 3 0 C3 0.66 3 1.32 3 2 C2.01 2.495 2.01 2.495 1 3 C0.34444881 5.52733235 0.34444881 5.52733235 0 8 C-0.99 8 -1.98 8 -3 8 C-2.25 2.25 -2.25 2.25 0 0 Z " fill="#457FA3" transform="translate(219,283)"/>
<path d="M0 0 C0.66 0 1.32 0 2 0 C1.67 2.97 1.34 5.94 1 9 C0.01 9.33 -0.98 9.66 -2 10 C-1.85950482 8.52031676 -1.71245174 7.04125484 -1.5625 5.5625 C-1.48128906 4.73878906 -1.40007812 3.91507812 -1.31640625 3.06640625 C-1 1 -1 1 0 0 Z " fill="#487A9B" transform="translate(212,283)"/>
<path d="M0 0 C0.99 0.33 1.98 0.66 3 1 C2.67 2.65 2.34 4.3 2 6 C0.68 5.67 -0.64 5.34 -2 5 C-1.125 1.125 -1.125 1.125 0 0 Z " fill="#EDF7FB" transform="translate(384,285)"/>
<path d="M0 0 C0.99 0.33 1.98 0.66 3 1 C2.67 2.65 2.34 4.3 2 6 C0.68 5.67 -0.64 5.34 -2 5 C-1.125 1.125 -1.125 1.125 0 0 Z " fill="#ECF4F9" transform="translate(306,285)"/>
<path d="M0 0 C0.99 0 1.98 0 3 0 C2.46274105 3.37705625 1.88935377 6.696686 1 10 C0.34 10 -0.32 10 -1 10 C-0.67 6.7 -0.34 3.4 0 0 Z " fill="#447A9F" transform="translate(364,283)"/>
<path d="M0 0 C0.763125 0.20625 1.52625 0.4125 2.3125 0.625 C2.3125 2.605 2.3125 4.585 2.3125 6.625 C1.6525 5.305 0.9925 3.985 0.3125 2.625 C-1.62824861 2.90117533 -1.62824861 2.90117533 -3.6875 3.625 C-4.3475 4.615 -5.0075 5.605 -5.6875 6.625 C-5.875 4.25 -5.875 4.25 -5.6875 1.625 C-2.6875 -0.375 -2.6875 -0.375 0 0 Z " fill="#266E9A" transform="translate(155.6875,283.375)"/>
<path d="M0 0 C0.66 0 1.32 0 2 0 C2 0.66 2 1.32 2 2 C3.093125 1.95875 4.18625 1.9175 5.3125 1.875 C9 2 9 2 12 4 C8.37 4 4.74 4 1 4 C0.67 2.68 0.34 1.36 0 0 Z " fill="#4581A7" transform="translate(53,263)"/>
<path d="M0 0 C1.32 0.66 2.64 1.32 4 2 C2.8125 3.5 2.8125 3.5 1 5 C-1.6875 5.1875 -1.6875 5.1875 -4 5 C-3 2 -3 2 0 0 Z " fill="#136CA3" transform="translate(369,224)"/>
<path d="M0 0 C1.485 0.99 1.485 0.99 3 2 C6.12521833 2.16699232 6.12521833 2.16699232 9 2 C8.67 2.99 8.34 3.98 8 5 C2.25 5.125 2.25 5.125 0 4 C0 2.68 0 1.36 0 0 Z " fill="#2A6A92" transform="translate(97,288)"/>
<path d="M0 0 C0.33 0 0.66 0 1 0 C1 1.65 1 3.3 1 5 C1.99 4.67 2.98 4.34 4 4 C4.99 4.33 5.98 4.66 7 5 C7 5.99 7 6.98 7 8 C4.69 7.67 2.38 7.34 0 7 C0 4.69 0 2.38 0 0 Z " fill="#1872AC" transform="translate(168,256)"/>
<path d="M0 0 C0.33 0 0.66 0 1 0 C1.02693575 2.12493141 1.04636628 4.24995912 1.0625 6.375 C1.07410156 7.55835938 1.08570313 8.74171875 1.09765625 9.9609375 C1 13 1 13 0 15 C-0.66 15 -1.32 15 -2 15 C-1.47462276 9.9697924 -0.89405214 4.98114761 0 0 Z " fill="#2A78A6" transform="translate(410,237)"/>
<path d="M0 0 C1.485 0.99 1.485 0.99 3 2 C3.29296875 4.6015625 3.29296875 4.6015625 3.1875 7.625 C3.16042969 8.62789062 3.13335937 9.63078125 3.10546875 10.6640625 C3.07066406 11.43492187 3.03585937 12.20578125 3 13 C2.67 13 2.34 13 2 13 C1.87625 11.865625 1.7525 10.73125 1.625 9.5625 C1.41875 8.386875 1.2125 7.21125 1 6 C0.34 5.67 -0.32 5.34 -1 5 C-0.67 3.35 -0.34 1.7 0 0 Z " fill="#1E6FA3" transform="translate(451,224)"/>
<path d="M0 0 C0.66 0 1.32 0 2 0 C1.67 3.3 1.34 6.6 1 10 C0.34 10 -0.32 10 -1 10 C-0.67 6.7 -0.34 3.4 0 0 Z " fill="#397397" transform="translate(286,283)"/>
<path d="M0 0 C0.66 0.33 1.32 0.66 2 1 C2.125 3.875 2.125 3.875 2 7 C0 9 0 9 -2.625 9.125 C-3.40875 9.08375 -4.1925 9.0425 -5 9 C-4.0409375 8.443125 -4.0409375 8.443125 -3.0625 7.875 C-0.36141928 5.41947207 -0.31592995 3.55421195 0 0 Z " fill="#236793" transform="translate(387,284)"/>
<path d="M0 0 C0.78375 0.04125 1.5675 0.0825 2.375 0.125 C2.375 0.785 2.375 1.445 2.375 2.125 C1.055 2.455 -0.265 2.785 -1.625 3.125 C-0.965 3.785 -0.305 4.445 0.375 5.125 C-0.945 5.455 -2.265 5.785 -3.625 6.125 C-4.25 4.25 -4.25 4.25 -4.625 2.125 C-2.625 0.125 -2.625 0.125 0 0 Z " fill="#4F82A1" transform="translate(271.625,282.875)"/>
<path d="M0 0 C1.98 0.495 1.98 0.495 4 1 C3.67 2.32 3.34 3.64 3 5 C1.68 5 0.36 5 -1 5 C-0.67 3.35 -0.34 1.7 0 0 Z " fill="#E7F1F8" transform="translate(232,285)"/>
<path d="M0 0 C0.33 0 0.66 0 1 0 C1.33 2.97 1.66 5.94 2 9 C2.99 9.33 3.98 9.66 5 10 C5 10.99 5 11.98 5 13 C3.0625 12.625 3.0625 12.625 1 12 C-0.26237731 9.47524538 -0.09856404 7.68799534 -0.0625 4.875 C-0.05347656 3.96492187 -0.04445313 3.05484375 -0.03515625 2.1171875 C-0.02355469 1.41851562 -0.01195312 0.71984375 0 0 Z " fill="#226F9B" transform="translate(315,236)"/>
<path d="M0 0 C1.98 0.495 1.98 0.495 4 1 C4 1.66 4 2.32 4 3 C4.66 3.33 5.32 3.66 6 4 C3.69 4 1.38 4 -1 4 C-0.67 2.68 -0.34 1.36 0 0 Z " fill="#A4C1D3" transform="translate(342,285)"/>
<path d="M0 0 C1.98 0.495 1.98 0.495 4 1 C4 1.66 4 2.32 4 3 C4.66 3.33 5.32 3.66 6 4 C3.69 4 1.38 4 -1 4 C-0.67 2.68 -0.34 1.36 0 0 Z " fill="#A5C3D4" transform="translate(112,285)"/>
<path d="M0 0 C2.6875 0.3125 2.6875 0.3125 5 1 C5.33 2.32 5.66 3.64 6 5 C5.34 5 4.68 5 4 5 C3.67 4.34 3.34 3.68 3 3 C1.02 3 -0.96 3 -3 3 C-1.8125 1.4375 -1.8125 1.4375 0 0 Z " fill="#39799D" transform="translate(342,283)"/>
<path d="M0 0 C0.99 0 1.98 0 3 0 C3 0.99 3 1.98 3 3 C3.66 3.33 4.32 3.66 5 4 C2.69 4.33 0.38 4.66 -2 5 C-1.34 3.35 -0.68 1.7 0 0 Z " fill="#A4C3D6" transform="translate(184,285)"/>
<path d="M0 0 C2.625 0.375 2.625 0.375 5 1 C5.33 2.32 5.66 3.64 6 5 C5.34 5 4.68 5 4 5 C3.67 4.34 3.34 3.68 3 3 C0.47266765 2.34444881 0.47266765 2.34444881 -2 2 C-1.34 1.34 -0.68 0.68 0 0 Z " fill="#44779A" transform="translate(112,283)"/>
<path d="M0 0 C1.485 0.99 1.485 0.99 3 2 C2.67 3.98 2.34 5.96 2 8 C1.01 8 0.02 8 -1 8 C-0.67 5.36 -0.34 2.72 0 0 Z " fill="#D0E3ED" transform="translate(67,258)"/>
<path d="M0 0 C2.1387261 3.20808915 2.47730962 4.27698497 2 8 C1.01 8.66 0.02 9.32 -1 10 C-0.67 6.7 -0.34 3.4 0 0 Z " fill="#E0EDF4" transform="translate(185,237)"/>
<path d="M0 0 C1.68762851 1.6454378 3.3540349 3.31288577 5 5 C5 5.33 5 5.66 5 6 C3.35 6 1.7 6 0 6 C0 4.02 0 2.04 0 0 Z " fill="#D2E0E6" transform="translate(464,170)"/>
</svg>
